<svg xmlns="http://www.w3.org/2000/svg" fill="none" viewBox="380.22 89.35 674.47 421.65"><path fill="#fff" stroke="#E5E7EB" stroke-width="4" d="M1009.27 138.913H477.031c-15.464 0-28 12.536-28 28V480.6c0 15.464 12.536 28 28 28h532.239c15.46 0 28-12.536 28-28V166.913c0-15.464-12.54-28-28-28Z"/><path fill="#fff" stroke="#E5E7EB" stroke-width="4" d="M953.205 166.091H912.44c-6.4 0-11.589 5.188-11.589 11.589 0 6.4 5.189 11.588 11.589 11.588h40.765c6.4 0 11.589-5.188 11.589-11.588 0-6.401-5.189-11.589-11.589-11.589ZM867.144 166.091h-40.765c-6.4 0-11.589 5.188-11.589 11.589 0 6.4 5.189 11.588 11.589 11.588h40.765c6.4 0 11.589-5.188 11.589-11.588 0-6.401-5.189-11.589-11.589-11.589ZM792.672 177.68c0-6.401-5.188-11.589-11.589-11.589-6.4 0-11.588 5.188-11.588 11.589 0 6.4 5.188 11.588 11.588 11.588 6.401 0 11.589-5.188 11.589-11.588Z"/><path fill="#E5E7EB" d="M522.553 381.315h79.058v28.953h33.296v-28.953h20.428v-27.908h-20.428v-107.85h-43.591L522.553 353.89zm79.701-27.908h-44.636v-1.287l43.349-68.602h1.287zm140.864 60.48c41.419 0 66.431-31.527 66.512-85.814.08-53.884-25.254-84.768-66.512-84.768-41.338 0-66.431 30.803-66.511 84.768-.161 54.126 25.012 85.733 66.511 85.814m0-28.873c-18.899 0-31.124-18.98-31.044-56.941.081-37.397 12.225-56.217 31.044-56.217 18.739 0 30.964 18.82 30.964 56.217.08 37.961-12.144 56.941-30.964 56.941m88.85-3.699h79.058v28.953h33.296v-28.953h20.428v-27.908h-20.428v-107.85h-43.591L831.968 353.89zm79.701-27.908h-44.636v-1.287l43.349-68.602h1.287z"/><path fill="#fff" stroke="#E5E7EB" stroke-width="4" d="M505.047 175.415a9.325 9.325 0 1 0-18.65.001 9.325 9.325 0 0 0 18.65-.001Z"/><path fill="#0E9F6E" d="M456.698 387.712c6.535 0 11.833 5.298 11.833 11.833s-5.298 11.833-11.833 11.833-11.833-5.298-11.833-11.833 5.298-11.833 11.833-11.833M1046.4 259.957c-7.92 4.575-18.05 1.86-22.63-6.065-4.57-7.925-1.86-18.058 6.07-22.634 7.92-4.575 18.05-1.86 22.63 6.065 4.57 7.925 1.86 18.058-6.07 22.634"/><path fill="#E5E7EB" d="M736.813 189.921c-6.82 0-12.349-5.529-12.349-12.349s5.529-12.349 12.349-12.349 12.349 5.529 12.349 12.349-5.529 12.349-12.349 12.349"/><path fill="#0E9F6E" d="M589.16 148.268c9.077 0 16.435-7.358 16.435-16.435s-7.358-16.435-16.435-16.435-16.435 7.358-16.435 16.435 7.358 16.435 16.435 16.435M824.114 430.2c-7.505 0-13.589 6.084-13.589 13.589s6.084 13.589 13.589 13.589 13.589-6.084 13.589-13.589-6.084-13.589-13.589-13.589"/><path fill="#E5E7EB" d="M572.76 482.358c-6.898 0-12.49-5.592-12.49-12.49s5.592-12.49 12.49-12.49 12.49 5.592 12.49 12.49-5.592 12.49-12.49 12.49M697.767 423.557c4.477 2.584 6.011 8.309 3.426 12.786s-8.309 6.01-12.786 3.426a9.36 9.36 0 0 1 9.36-16.212M1006.46 163.478l-17.027 17.024a1.589 1.589 0 0 0 2.245 2.245l17.022-17.024c.62-.62.62-1.626 0-2.246a1.58 1.58 0 0 0-2.24.001M1004.79 175.668l-4.908 4.909a1.587 1.587 0 1 0 2.248 2.245l4.91-4.909a1.589 1.589 0 1 0-2.25-2.245M481.386 464.044l-15.234 15.234a1.42 1.42 0 0 0 0 2.008l.001.001a1.42 1.42 0 0 0 2.008 0l15.234-15.234a1.42 1.42 0 0 0 0-2.008l-.001-.001a1.42 1.42 0 0 0-2.008 0M479.895 474.95l-4.394 4.394a1.42 1.42 0 0 0 0 2.008l.001.001a1.42 1.42 0 0 0 2.008 0l4.394-4.394a1.42 1.42 0 0 0 0-2.008l-.001-.001a1.42 1.42 0 0 0-2.008 0M407.559 167.787l29.449-29.449a2.746 2.746 0 1 0-3.883-3.884l-29.449 29.449a2.746 2.746 0 0 0 3.883 3.884M410.443 146.702l8.493-8.493a2.746 2.746 0 1 0-3.883-3.884l-8.493 8.493a2.746 2.746 0 1 0 3.883 3.884M992.411 484.566l20.729-20.732c.76-.755.76-1.979 0-2.734a1.93 1.93 0 0 0-2.73 0l-20.733 20.732a1.933 1.933 0 1 0 2.734 2.734M994.44 469.723l5.98-5.979c.75-.755.75-1.979 0-2.734a1.933 1.933 0 0 0-2.734 0l-5.98 5.979a1.933 1.933 0 1 0 2.734 2.734"/><path fill="#E5E7EB" fill-rule="evenodd" d="M978.429 102.773h3.304c.799 0 1.442.65 1.442 1.442v3.304c0 .799-.65 1.442-1.442 1.442h-3.304c-.792 0-1.442-.65-1.442-1.442v-3.304a1.45 1.45 0 0 1 .421-1.02 1.44 1.44 0 0 1 1.021-.422m11.455 0h3.304c.792 0 1.442.65 1.442 1.442v3.304c0 .799-.65 1.442-1.442 1.442h-3.304c-.792 0-1.442-.65-1.442-1.442v-3.304c0-.792.65-1.442 1.442-1.442m11.466 0h3.3c.79 0 1.44.65 1.44 1.442v3.304c0 .799-.65 1.442-1.44 1.442h-3.3c-.8 0-1.445-.65-1.445-1.442v-3.304c0-.189.037-.377.105-.552.08-.175.18-.335.32-.468.13-.134.29-.241.46-.313.18-.072.37-.109.56-.109m11.45 0h3.31c.79 0 1.44.65 1.44 1.442v3.304c0 .799-.65 1.442-1.44 1.442h-3.31c-.38 0-.75-.152-1.02-.422s-.42-.637-.43-1.02v-3.304a1.46 1.46 0 0 1 1.45-1.442m11.46 0h3.3c.8 0 1.45.65 1.45 1.442v3.304c0 .799-.65 1.442-1.45 1.442h-3.3c-.79 0-1.44-.65-1.44-1.442v-3.304c0-.792.65-1.442 1.44-1.442m-33.956 12.492h3.304c.793 0 1.443.65 1.443 1.442v3.311c0 .792-.65 1.442-1.443 1.442h-3.304c-.799 0-1.442-.65-1.442-1.442v-3.304a1.44 1.44 0 0 1 1.442-1.449m11.456 0h3.3c.8 0 1.45.65 1.45 1.442v3.311a1.45 1.45 0 0 1-1.45 1.442h-3.3c-.79 0-1.44-.65-1.44-1.442v-3.304c0-.19.03-.378.11-.554.07-.176.17-.336.31-.471.13-.134.29-.241.47-.314.17-.073.36-.11.55-.11m11.46 0h3.3c.8 0 1.45.65 1.45 1.442v3.311a1.45 1.45 0 0 1-1.45 1.442h-3.3c-.8 0-1.45-.65-1.45-1.442v-3.304c0-.799.65-1.449 1.45-1.449m-11.87-25.912h3.3c.79 0 1.44.65 1.44 1.442V94.1c0 .798-.65 1.442-1.44 1.442h-3.3c-.8 0-1.445-.65-1.445-1.442v-3.305c0-.19.037-.377.105-.552.08-.175.18-.334.32-.468.13-.135.29-.24.46-.313.18-.072.37-.11.56-.109m11.45 0h3.31c.79 0 1.44.65 1.44 1.442V94.1c0 .798-.65 1.442-1.44 1.442h-3.31c-.38 0-.75-.152-1.02-.422s-.42-.637-.43-1.02v-3.305c.01-.382.16-.748.43-1.017.27-.27.64-.423 1.02-.425m-631.137 402.96h3.304c.799 0 1.442.65 1.442 1.442v3.304c0 .799-.65 1.442-1.442 1.442h-3.304c-.792 0-1.442-.65-1.442-1.442v-3.304a1.45 1.45 0 0 1 .421-1.021 1.45 1.45 0 0 1 1.021-.421m11.455 0h3.304c.793 0 1.443.65 1.443 1.442v3.304c0 .799-.65 1.442-1.443 1.442h-3.304c-.792 0-1.442-.65-1.442-1.442v-3.304c0-.792.65-1.442 1.442-1.442m11.463 0h3.305c.792 0 1.442.65 1.442 1.442v3.304c0 .799-.65 1.442-1.442 1.442h-3.305c-.792 0-1.442-.65-1.442-1.442v-3.304a1.451 1.451 0 0 1 .89-1.333c.175-.072.363-.109.552-.109m11.456 0h3.304c.792 0 1.442.65 1.442 1.442v3.304c0 .799-.65 1.442-1.442 1.442h-3.304a1.45 1.45 0 0 1-1.449-1.442v-3.304a1.455 1.455 0 0 1 1.449-1.442m11.456 0h3.304c.799 0 1.449.65 1.449 1.442v3.304c0 .799-.65 1.442-1.449 1.442h-3.304c-.792 0-1.442-.65-1.442-1.442v-3.304c0-.792.65-1.442 1.442-1.442m-33.954 12.492h3.304c.792 0 1.442.65 1.442 1.442v3.311c0 .792-.65 1.442-1.442 1.442h-3.304c-.799 0-1.443-.65-1.443-1.442v-3.304a1.443 1.443 0 0 1 1.443-1.449m11.455 0h3.304c.792 0 1.442.65 1.442 1.442v3.311c0 .792-.65 1.442-1.442 1.442h-3.304c-.792 0-1.442-.65-1.442-1.442v-3.304a1.44 1.44 0 0 1 1.442-1.449m11.456 0h3.304c.799 0 1.449.65 1.449 1.442v3.311a1.45 1.45 0 0 1-1.449 1.442h-3.304c-.792 0-1.442-.65-1.442-1.442v-3.304c0-.799.65-1.449 1.442-1.449m-11.868-25.912h3.304c.792 0 1.442.65 1.442 1.443v3.304c0 .799-.65 1.442-1.442 1.442h-3.304c-.793 0-1.443-.65-1.443-1.442v-3.304a1.436 1.436 0 0 1 .89-1.334q.266-.108.553-.109m11.455 0h3.304c.792 0 1.442.65 1.442 1.443v3.304c0 .799-.65 1.442-1.442 1.442h-3.304a1.45 1.45 0 0 1-1.449-1.442v-3.304a1.457 1.457 0 0 1 1.449-1.443" clip-rule="evenodd"/><path fill="#0E9F6E" fill-rule="evenodd" d="M450.882 325.922c-24.64 0-44.617-20.259-44.617-45.246s19.977-45.245 44.617-45.245 44.617 20.258 44.617 45.245-19.977 45.246-44.617 45.246" clip-rule="evenodd"/><path stroke="#fff" stroke-linecap="round" stroke-linejoin="round" stroke-width="7.405" d="m468.857 261.476-18.848 20.109-11.316-12.064"/><path stroke="#fff" stroke-linecap="round" stroke-linejoin="round" stroke-width="7.405" d="m431.178 300.835 18.848-20.109 11.316 12.064"/></svg>